<svg width="512" height="512" viewBox="0 0 512 512" fill="none" xmlns="http://www.w3.org/2000/svg">
<g clip-path="url(#clip0_826_30)">
<path d="M512 239.936C508.915 190.017 491.289 142.091 461.295 102.068C431.301 62.0446 390.251 31.6735 343.205 14.6986C296.159 -2.27626 245.173 -5.11282 196.535 6.53863C147.896 18.1901 103.73 43.8202 69.4817 80.2693C35.2333 116.718 12.3998 162.393 3.79613 211.662C-4.80758 260.931 1.19462 311.641 21.0628 357.541C40.9309 403.44 73.7965 442.522 115.608 469.968C157.419 497.415 206.348 512.026 256.363 512H405.333C433.614 511.972 460.729 500.725 480.727 480.727C500.725 460.729 511.972 433.615 512 405.333V239.936ZM469.333 405.333C469.333 422.307 462.591 438.586 450.588 450.588C438.586 462.591 422.307 469.333 405.333 469.333H256.363C226.26 469.32 196.498 462.962 169.018 450.673C141.537 438.385 116.955 420.443 96.8747 398.016C76.6971 375.601 61.5452 349.13 52.4351 320.38C43.325 291.629 40.4672 261.263 44.0534 231.317C49.716 184.084 70.9374 140.079 104.372 106.238C137.807 72.3981 181.553 50.6477 228.715 44.4161C237.914 43.263 247.176 42.6788 256.448 42.6667C306.165 42.5311 354.343 59.902 392.533 91.7334C414.838 110.271 433.146 133.145 446.347 158.968C459.549 184.792 467.369 213.027 469.333 241.963V405.333Z" fill="black"/>
<path d="M170.667 192H256C261.658 192 267.084 189.752 271.085 185.752C275.086 181.751 277.333 176.325 277.333 170.667C277.333 165.009 275.086 159.583 271.085 155.582C267.084 151.581 261.658 149.333 256 149.333H170.667C165.009 149.333 159.583 151.581 155.582 155.582C151.581 159.583 149.333 165.009 149.333 170.667C149.333 176.325 151.581 181.751 155.582 185.752C159.583 189.752 165.009 192 170.667 192Z" fill="black"/>
<path d="M341.333 234.667H170.667C165.009 234.667 159.583 236.914 155.582 240.915C151.581 244.916 149.333 250.342 149.333 256C149.333 261.658 151.581 267.084 155.582 271.085C159.583 275.086 165.009 277.333 170.667 277.333H341.333C346.991 277.333 352.418 275.086 356.418 271.085C360.419 267.084 362.667 261.658 362.667 256C362.667 250.342 360.419 244.916 356.418 240.915C352.418 236.914 346.991 234.667 341.333 234.667Z" fill="black"/>
<path d="M341.333 320H170.667C165.009 320 159.583 322.248 155.582 326.248C151.581 330.249 149.333 335.675 149.333 341.333C149.333 346.991 151.581 352.418 155.582 356.418C159.583 360.419 165.009 362.667 170.667 362.667H341.333C346.991 362.667 352.418 360.419 356.418 356.418C360.419 352.418 362.667 346.991 362.667 341.333C362.667 335.675 360.419 330.249 356.418 326.248C352.418 322.248 346.991 320 341.333 320Z" fill="black"/>
</g>
<defs>
<clipPath id="clip0_826_30">
<rect width="512" height="512" fill="white"/>
</clipPath>
</defs>
</svg>
