<svg width="512" height="512" viewBox="0 0 512 512" fill="none" xmlns="http://www.w3.org/2000/svg">
<path d="M256 42.6666C176.64 42.6666 111.147 64 80.64 98.7733C29.8667 157.653 29.8667 354.773 80.64 413.227C111.147 448 176.64 469.333 256 469.333C335.36 469.333 400.853 448 431.36 413.227C482.133 354.347 482.133 157.227 431.36 98.7733C400.853 64 335.36 42.6666 256 42.6666Z" fill="#4F51C0"/>
<path d="M256 197.333C270.728 197.333 282.667 185.394 282.667 170.667C282.667 155.939 270.728 144 256 144C241.272 144 229.333 155.939 229.333 170.667C229.333 185.394 241.272 197.333 256 197.333Z" fill="white"/>
<path d="M256 373.333C250.342 373.333 244.916 371.086 240.915 367.085C236.914 363.084 234.667 357.658 234.667 352V266.667C229.009 266.667 223.583 264.419 219.582 260.418C215.581 256.417 213.333 250.991 213.333 245.333C213.333 239.675 215.581 234.249 219.582 230.248C223.583 226.248 229.009 224 234.667 224H256C261.658 224 267.084 226.248 271.085 230.248C275.086 234.249 277.333 239.675 277.333 245.333V352C277.333 357.658 275.086 363.084 271.085 367.085C267.084 371.086 261.658 373.333 256 373.333Z" fill="white"/>
<path d="M277.333 373.333H234.667C229.009 373.333 223.583 371.086 219.582 367.085C215.581 363.084 213.333 357.658 213.333 352C213.333 346.342 215.581 340.916 219.582 336.915C223.583 332.914 229.009 330.667 234.667 330.667H277.333C282.991 330.667 288.418 332.914 292.418 336.915C296.419 340.916 298.667 346.342 298.667 352C298.667 357.658 296.419 363.084 292.418 367.085C288.418 371.086 282.991 373.333 277.333 373.333Z" fill="white"/>
</svg>
