<svg width="512" height="512" viewBox="0 0 512 512" fill="none" xmlns="http://www.w3.org/2000/svg">
<g clip-path="url(#clip0_826_28)">
<path d="M213.333 213.333C196.359 213.333 180.081 220.076 168.079 232.078C156.076 244.081 149.333 260.359 149.333 277.333C149.333 294.307 156.076 310.586 168.079 322.588C180.081 334.591 196.359 341.333 213.333 341.333H298.667C315.641 341.333 331.919 334.591 343.922 322.588C355.924 310.586 362.667 294.307 362.667 277.333C362.667 260.359 355.924 244.081 343.922 232.078C331.919 220.076 315.641 213.333 298.667 213.333H213.333ZM320 277.333C320 282.991 317.752 288.417 313.752 292.418C309.751 296.419 304.325 298.667 298.667 298.667H213.333C207.675 298.667 202.249 296.419 198.248 292.418C194.248 288.417 192 282.991 192 277.333C192 271.675 194.248 266.249 198.248 262.248C202.249 258.248 207.675 256 213.333 256H298.667C304.325 256 309.751 258.248 313.752 262.248C317.752 266.249 320 271.675 320 277.333ZM362.667 405.333C362.667 410.991 360.419 416.418 356.418 420.418C352.418 424.419 346.991 426.667 341.333 426.667H170.667C165.009 426.667 159.583 424.419 155.582 420.418C151.581 416.418 149.333 410.991 149.333 405.333C149.333 399.675 151.581 394.249 155.582 390.248C159.583 386.248 165.009 384 170.667 384H341.333C346.991 384 352.418 386.248 356.418 390.248C360.419 394.249 362.667 399.675 362.667 405.333ZM416.768 66.5813L381.397 31.2533C371.517 21.3173 359.765 13.4392 346.82 8.07458C333.876 2.71001 319.996 -0.0344564 305.984 -4.66115e-05H170.667C142.387 0.0338277 115.276 11.2828 95.2794 31.2793C75.2828 51.2759 64.0339 78.3873 64 106.667V405.333C64.0339 433.613 75.2828 460.724 95.2794 480.721C115.276 500.717 142.387 511.966 170.667 512H341.333C369.613 511.966 396.724 500.717 416.721 480.721C436.717 460.724 447.966 433.613 448 405.333V142.016C448.04 128.002 445.3 114.119 439.939 101.171C434.578 88.2222 426.703 76.4657 416.768 66.5813ZM386.603 96.7466C389.605 99.7851 392.305 103.107 394.667 106.667H341.333V53.3333C344.898 55.6699 348.215 58.3648 351.232 61.376L386.603 96.7466ZM405.333 405.333C405.333 422.307 398.591 438.586 386.588 450.588C374.586 462.591 358.307 469.333 341.333 469.333H170.667C153.693 469.333 137.414 462.591 125.412 450.588C113.41 438.586 106.667 422.307 106.667 405.333V106.667C106.667 89.6928 113.41 73.4141 125.412 61.4118C137.414 49.4095 153.693 42.6666 170.667 42.6666H298.667V106.667C298.667 117.983 303.162 128.835 311.163 136.837C319.165 144.838 330.017 149.333 341.333 149.333H405.333V405.333Z" fill="black"/>
</g>
<defs>
<clipPath id="clip0_826_28">
<rect width="512" height="512" fill="white"/>
</clipPath>
</defs>
</svg>
