<svg id="Layer_1" enable-background="new 0 0 511.998 511.998" height="512" viewBox="0 0 511.998 511.998" width="512" xmlns="http://www.w3.org/2000/svg"><path d="m464.865 80.333h-259.823c-4.576 0-8.878-1.782-12.114-5.018l-29.377-29.377c-8.902-8.902-20.739-13.805-33.328-13.805h-83.09c-25.989 0-47.133 21.144-47.133 47.134v353.465c0 26.03 21.059 47.133 47.133 47.133h417.732c26.033 0 47.133-21.062 47.133-47.133v-305.266c0-26.028-21.058-47.133-47.133-47.133zm-417.732-18.2h83.09c4.576 0 8.879 1.782 12.115 5.018l29.376 29.376c8.902 8.902 20.738 13.805 33.328 13.805h259.823c9.463 0 17.133 7.658 17.133 17.133v36.411c-5.39-2.101-11.174-3.212-17.133-3.212h-417.732c-5.959 0-11.744 1.111-17.133 3.212v-84.609c0-9.448 7.686-17.134 17.133-17.134zm434.865 370.598c0 9.464-7.658 17.133-17.133 17.133h-417.732c-9.465 0-17.133-7.658-17.133-17.133v-224.932c0-9.465 7.658-17.133 17.133-17.133h417.732c9.463 0 17.133 7.658 17.133 17.133z"/></svg>