<svg width="512" height="512" viewBox="0 0 512 512" fill="none" xmlns="http://www.w3.org/2000/svg">
<g clip-path="url(#clip0)">
<path d="M79.9977 0C35.8851 0 0 35.8892 0 79.9964C0 124.113 35.8851 160.005 79.9977 160.005C124.11 160.005 160 124.115 160 79.9964C160 35.8892 124.11 0 79.9977 0Z" fill="black"/>
<path d="M431.998 352C387.885 352 352 387.889 352 432.008C352 476.115 387.885 512.005 431.998 512.005C476.11 512.005 512 476.115 512 432.008C512 387.889 476.11 352 431.998 352Z" fill="black"/>
<path d="M431.998 0C387.885 0 352 35.8892 352 80.0081C352 124.115 387.885 160.005 431.998 160.005C476.11 160.005 512 124.115 512 80.0081C512 35.8892 476.11 0 431.998 0Z" fill="black"/>
<path d="M79.9977 352C35.8851 352 0 387.889 0 432.008C0 476.115 35.8851 512.005 79.9977 512.005C124.11 512.005 160 476.115 160 432.008C160 387.889 124.11 352 79.9977 352Z" fill="black"/>
</g>
<defs>
<clipPath id="clip0">
<rect width="512" height="512" fill="white"/>
</clipPath>
</defs>
</svg>
