<svg width="512" height="512" viewBox="0 0 512 512" fill="none" xmlns="http://www.w3.org/2000/svg">
<path d="M109.412 89.0905H15.0587C6.74097 89.0905 0 82.3451 0 74.0318C0 65.7186 6.74097 58.9731 15.0587 58.9731H109.412C117.73 58.9731 124.471 65.7186 124.471 74.0318C124.471 82.3451 117.73 89.0905 109.412 89.0905Z" fill="black"/>
<path d="M163.33 143.004C125.295 143.004 94.3535 112.062 94.3535 74.0307C94.3535 35.9915 125.295 5.04987 163.33 5.04987C201.365 5.04987 232.306 35.9915 232.306 74.0307C232.306 112.063 201.365 143.004 163.33 143.004ZM163.33 35.1684C141.902 35.1684 124.471 52.6034 124.471 74.0307C124.471 95.4581 141.902 112.885 163.33 112.885C184.757 112.885 202.189 95.4581 202.189 74.0307C202.189 52.6034 184.757 35.1684 163.33 35.1684Z" fill="black"/>
<path d="M496.941 89.0905H271.874C263.556 89.0905 256.815 82.3451 256.815 74.0318C256.815 65.7186 263.556 58.9731 271.874 58.9731H496.94C505.258 58.9731 511.999 65.7186 511.999 74.0318C511.999 82.3451 505.259 89.0905 496.941 89.0905Z" fill="black"/>
<path d="M365.518 324.973C327.482 324.973 296.541 294.031 296.541 256C296.541 217.969 327.483 187.027 365.518 187.027C403.552 187.027 434.494 217.969 434.494 256C434.494 294.031 403.553 324.973 365.518 324.973ZM365.518 217.145C344.09 217.145 326.659 234.573 326.659 256C326.659 277.427 344.09 294.854 365.518 294.854C386.945 294.854 404.377 277.427 404.377 256C404.377 234.573 386.945 217.145 365.518 217.145Z" fill="black"/>
<path d="M256.977 271.059H15.0587C6.74097 271.059 0 264.313 0 256C0 247.687 6.74097 240.941 15.0587 240.941H256.977C265.295 240.941 272.035 247.687 272.035 256C272.035 264.313 265.295 271.059 256.977 271.059Z" fill="black"/>
<path d="M496.941 271.059H419.435C411.118 271.059 404.377 264.313 404.377 256C404.377 247.687 411.118 240.941 419.435 240.941H496.941C505.259 240.941 512 247.687 512 256C512 264.313 505.259 271.059 496.941 271.059Z" fill="black"/>
<path d="M146.482 506.949C108.448 506.949 77.506 476.007 77.506 437.968C77.506 399.937 108.448 368.995 146.482 368.995C184.517 368.995 215.459 399.937 215.459 437.968C215.459 476.007 184.517 506.949 146.482 506.949ZM146.482 399.114C125.055 399.114 107.623 416.541 107.623 437.968C107.623 459.395 125.055 476.831 146.482 476.831C167.91 476.831 185.341 459.395 185.341 437.968C185.341 416.541 167.91 399.114 146.482 399.114Z" fill="black"/>
<path d="M496.941 453.028H255.023C246.706 453.028 239.965 446.283 239.965 437.969C239.965 429.656 246.706 422.911 255.023 422.911H496.941C505.259 422.911 512 429.656 512 437.969C512 446.283 505.259 453.028 496.941 453.028Z" fill="black"/>
<path d="M92.5648 453.028H15.0587C6.74097 453.028 0 446.283 0 437.968C0 429.655 6.74097 422.91 15.0587 422.91H92.5648C100.882 422.91 107.623 429.655 107.623 437.968C107.623 446.283 100.882 453.028 92.5648 453.028Z" fill="black"/>
</svg>
